<svg xmlns="http://www.w3.org/2000/svg" version="1.1" x="0" y="0" width="50" height="50">
<g stroke-linejoin="round" stroke="#000" stroke-linecap="round" stroke-width=".81">
<path d="m4.61 21.26c15.29 2.55 26.53 2.26 39.62 0 0.15-0.03 0.2 19.44 0 19.46-9.58 1.05-26.65 1.74-39.62 0zm0-9.5" fill="#EEE4D4"/>
<path d="m1.08 23.29c3.24-3.48 19.16-16.34 20.85-16.8 1.27-0.34 4.63-0.46 5.79 0.23 1.06 0.64 17.84 12.54 20.85 15.26 0.11 0.09 0.2 0.18 0.27 0.25 0.01 0.01 0.02 0.02 0.03 0.02 0.09 0.11 0.15 0.18 0.16 0.23 0.04 0.15-0.44 0.28-1.29 0.38-0.07 0.01-0.13 0.02-0.2 0.02-0.27 0.03-0.58 0.06-0.92 0.09-0.08 0.01-0.16 0.01-0.24 0.02-5.38 0.41-17.51 0.47-23.06 0.99-1.83 0.18-17.24 1.02-21.35 0.11-0.84-0.19-1.21-0.45-0.89-0.8z" fill="#49352A"/>
<path d="m20.42 41.48c-0.11-6.38-0.81-10.89 0.23-11.01 1.05-0.12 5.45-0.58 5.56 0.35 0.12 0.92 1.16 10.77 0.47 10.77-0.7 0-3.13 0-6.26-0.11z" fill="#232B2C"/>
<path d="m8.49 28.39c0 3.7-0.35 5.56 0.58 5.56 1.85 0 5.21 0.46 5.44-0.58 0.24-1.05 0.47-5.45-0.58-5.33-1.61 0.18-4.75-0.47-5.44 0.35z" fill="#3E5375"/>
<path d="m33.05 27.57c-0.35 2.09-0.47 5.77 0.34 5.8 1.05 0.03 6.84 0.58 6.84-0.35s0.58-5.79-0.35-5.79-6.49-0.58-6.83 0.34zm-0.7 1.39" fill="#3E5375"/>
</g>
</svg>
