<svg xmlns="http://www.w3.org/2000/svg" version="1.1" x="0" y="0" width="50" height="50">
<g fill-rule="non-zero">
<path fill="#E17322" d="m34.08 3h-18.16c-3 0-5.43 2.43-5.43 5.43v33.14c0 3 2.43 5.43 5.43 5.43h18.16c3 0 5.43-2.43 5.43-5.43v-33.14c0-3-2.43-5.43-5.43-5.43m1.63 32.59"/>
<path fill="#fff" d="m21.23 43.13c0 0.33-0.27 0.6-0.6 0.6h-0.48c-0.89 0-1.62-0.73-1.62-1.62s0.73-1.62 1.62-1.62h0.48c0.33 0 0.6 0.27 0.6 0.61zm4.72 0.78h-1.19c-0.99 0-1.8-0.81-1.8-1.8s0.81-1.8 1.8-1.8h1.19c1 0 1.8 0.81 1.8 1.8s-0.8 1.8-1.8 1.8m4.61-0.18h-0.48c-0.33 0-0.6-0.27-0.6-0.6v-2.03c0-0.34 0.27-0.61 0.6-0.61h0.48c0.89 0 1.62 0.73 1.62 1.62s-0.73 1.62-1.62 1.62m5.15-8.14c0 0.9-0.73 1.63-1.63 1.63h-18.16c-0.9 0-1.63-0.73-1.63-1.63v-25.53c0-0.9 0.73-1.63 1.63-1.63h18.16c0.9 0 1.63 0.73 1.63 1.63z"/>
<g fill="#E17322">
<path d="m22.49 27.87c0-1.38 1.13-2.51 2.51-2.51 1.39 0 2.51 1.13 2.51 2.51 0 1.39-1.12 2.51-2.51 2.51-1.38 0-2.51-1.12-2.51-2.51m4.02-0.36c-0.14-0.28-0.34-0.41-0.61-0.4-0.28 0.01-0.28 0.15-0.42 0.16-0.09 0-0.2-0.16-0.42-0.16-0.57 0-0.67 0.53-0.67 0.65v0.71c0 0.04 0.04 0.22 0.24 0.22 0.13 0 0.22-0.14 0.22-0.23v-0.69c0-0.07 0.05-0.2 0.19-0.2 0.15 0 0.2 0.11 0.2 0.19v0.7c0 0.05 0.04 0.23 0.24 0.23 0.19 0 0.22-0.21 0.22-0.25v-0.67c0.01-0.09 0.07-0.2 0.2-0.2 0.16 0 0.2 0.14 0.21 0.2 0.02 0.21 0.01 0.14 0.01 0.54 0 0.39-0.34 0.86-1.06 0.86-0.9 0-1.33-0.76-1.33-1.28 0-0.89 0.74-1.31 1.27-1.31 0.63 0 0.76 0.27 0.93 0.32 0.12 0.03 0.21-0.02 0.26-0.1 0.09-0.13 0.08-0.25-0.07-0.37-0.29-0.23-0.62-0.38-1.09-0.38-1.25 0-1.82 1.06-1.82 1.82 0 1.29 1.17 1.82 1.76 1.82 0.51 0 0.96-0.1 1.34-0.56 0.39-0.46 0.31-1.38 0.2-1.62"/>
<path d="m28.03 24.65c-0.18 0-0.35-0.07-0.48-0.2-1.41-1.41-3.69-1.41-5.1 0-0.26 0.26-0.69 0.26-0.96 0-0.26-0.27-0.26-0.69 0-0.96 1.94-1.93 5.08-1.93 7.02 0 0.26 0.27 0.26 0.69 0 0.96-0.13 0.13-0.31 0.2-0.48 0.2"/>
<path d="m19.32 22c-0.17 0-0.34-0.07-0.48-0.2-0.26-0.26-0.26-0.69 0-0.96 1.65-1.64 3.83-2.55 6.16-2.55s4.51 0.91 6.16 2.55c0.26 0.27 0.26 0.7 0 0.96-0.27 0.27-0.7 0.27-0.96 0-1.39-1.39-3.24-2.15-5.2-2.15s-3.81 0.76-5.2 2.15c-0.13 0.13-0.3 0.2-0.48 0.2"/>
<path d="m33.2 19.48c-0.17 0-0.34-0.07-0.48-0.2-4.26-4.26-11.18-4.26-15.44 0-0.26 0.26-0.7 0.26-0.96 0-0.27-0.27-0.27-0.7 0-0.96 4.79-4.79 12.58-4.79 17.36 0 0.27 0.26 0.27 0.69 0 0.96-0.13 0.13-0.3 0.2-0.48 0.2"/>
</g>
</g>
</svg>
