<svg xmlns="http://www.w3.org/2000/svg" version="1.1" x="0" y="0" width="200" height="200">
<rect y="0" width="200" fill="#B3B3B3" x="0" height="200"/>
<path d="m91.09 147.8c5.43-11.4 12.51-23.5 0.91-41.9-11.45-18.08-12.56-12.56-17.5-18.1-2.55-2.87-6.1-13.07-5.13-15.99 0.91-2.71 0.91-1.51 1.21-5.12 0.3-3.62-4.11-21.19 18.7-30.47 18.72-7.62 28.22 1.36 37.42 11.46 6.3 6.94 3.9 16.58 6 19.31 0.8 1.07 0.7 2.98 0.6 4.22-0.6 7.52-0.9 10.25-6.6 15.98-9.4 9.4-10.3 8.45-10.6 12.07-0.5 6.64-0.6 8.74 2.1 8.14 7.4-1.6 17.4 3.2 27.8 13.6 8.4 8.4 8.7 13.6 8.7 18.7s-2.1 8.1-2.4 8.1c-5.1 0-46.7-0.3-61.21 0zm-0.9-0.6" fill="#ccc"/>
<path d="m80.88 119.1c0 2.6-0.37 4.9-1.11 7s-1.79 3.9-3.13 5.4-2.96 2.7-4.84 3.6c-1.88 1-3.96 1.5-6.23 1.8l-0.38 9.2c-0.03 0.6-0.49 1-1.35 1.3-0.87 0.3-2.13 0.4-3.77 0.4h-2.64c-0.71-0.1-1.27-0.2-1.68-0.3s-0.71-0.3-0.9-0.5-0.3-0.5-0.33-0.9l-0.43-11.1c-0.03-1.1 0.02-1.9 0.14-2.5 0.13-0.7 0.36-1.2 0.69-1.5 0.33-0.4 0.75-0.7 1.26-0.8 0.5-0.2 1.1-0.2 1.8-0.2h0.66c1.68 0 3.12-0.3 4.34-0.8 1.22-0.6 2.22-1.3 3.01-2.2s1.37-1.9 1.73-3.1c0.37-1.2 0.55-2.5 0.55-3.8 0-1.6-0.21-2.9-0.64-4.2s-1.08-2.4-1.95-3.3c-0.86-0.9-1.96-1.6-3.27-2.1s-2.85-0.7-4.62-0.7c-1.61 0-3.04 0.1-4.27 0.4-1.23 0.4-2.29 0.7-3.18 1.1-0.88 0.4-1.62 0.7-2.2 1-0.59 0.3-1.04 0.5-1.35 0.5-0.22 0-0.43-0.1-0.62-0.2-0.19-0.2-0.35-0.4-0.47-0.8-0.13-0.4-0.23-0.9-0.31-1.6s-0.12-1.6-0.12-2.7 0.05-1.9 0.14-2.4c0.1-0.5 0.3-0.9 0.62-1.2s0.92-0.7 1.8-1.1c0.89-0.4 1.95-0.8 3.18-1.2s2.61-0.7 4.12-0.9c1.52-0.3 3.1-0.4 4.75-0.4 3.73 0 6.92 0.5 9.57 1.5 2.66 1 4.83 2.4 6.53 4.2 1.69 1.7 2.93 3.7 3.72 6 0.79 2.2 1.18 4.6 1.18 7.1zm-14.03 40.6c0 1.3-0.11 2.4-0.31 3.3-0.21 0.9-0.57 1.6-1.09 2.1s-1.22 0.9-2.09 1.2c-0.87 0.2-1.94 0.3-3.2 0.3-1.33 0-2.42-0.1-3.27-0.3-0.86-0.3-1.54-0.7-2.06-1.2-0.53-0.5-0.89-1.2-1.1-2.1-0.2-0.9-0.3-2-0.3-3.3s0.1-2.4 0.3-3.3c0.21-0.9 0.57-1.7 1.1-2.2 0.52-0.6 1.2-1 2.06-1.2 0.85-0.2 1.94-0.4 3.27-0.4 1.26 0 2.33 0.2 3.2 0.4s1.57 0.6 2.09 1.2c0.52 0.5 0.88 1.3 1.09 2.2 0.2 0.9 0.31 2 0.31 3.3zm17.97 6.2" fill="#ccc"/>
</svg>
