<svg xmlns="http://www.w3.org/2000/svg" version="1.1" x="0" y="0" width="200" height="200">
<path stroke-linejoin="round" d="m191.6 95.04c-0.3-2.49-15.9-16.5-21.4-14l-2.8 0.25 3.4-34.45-116.4-11.58-3.89 41.26-43.08 15.68 24.9 68.8 42.4-15.3-0.23 9 117.1 0.1zm-75-10.48" stroke="#808080" stroke-linecap="round" stroke-width="13.33" fill="none"/>
<path stroke="#000" stroke-width="1.01" d="m142 120.1c0.2 0.4 0 0.8-0.4 0.9l-108.7 39.6c-0.33 0.1-0.75-0.1-0.88-0.4l-24.54-67.45c-0.14-0.38 0.05-0.79 0.43-0.93l108.7-39.55c0.4-0.14 0.8 0.06 0.9 0.43l24.5 67.4z" fill="#fff"/>
<path stroke="#000" stroke-width=".72" d="m14.14 94.95l99.66-36.28 21.6 59.23-99.7 36.3z"/>
<g fill="#F6B324">
<path d="m39.15 104.7l-4.38 1.7-1.02 4.6-3.04-3.6-4.7 0.4 2.5-4-1.89-4.32 4.59 1.12 3.53-3.06 0.34 4.66z"/>
<path d="m39.14 124l-2.35-1.3-2.38 1.3 0.47-2.7-1.91-1.8 2.66-0.4 1.2-2.4 1.16 2.4 2.65 0.4-1.93 1.9z"/>
<path d="m59.77 129.7l-4.46 5.7 1.95 6.7-6.55-2.3-5.83 4.2 0.42-7.1-5.55-4.1 6.81-2.1 2.39-6.7 3.79 5.8z"/>
<path d="m47.91 115.5l-1.27-0.7-1.36 0.8 0.34-1.6-0.99-1 1.48-0.3 0.74-1.5 0.58 1.4 1.45 0.2-1.13 1.1z"/>
<path d="m74.24 97.88l-5.68 7.22 2.48 8.5-8.34-2.9-7.41 5.4 0.53-9-7.06-5.3 8.66-2.62 3.05-8.6 4.82 7.38z"/>
</g>
<g stroke="#000">
<path stroke-linejoin="round" d="m172.5 81.25h-97.08c-0.39 0-0.72 0.32-0.72 0.72v71.73c0 0.4 0.33 0.7 0.72 0.7h115.7c0.4 0 0.7-0.3 0.7-0.7v-58.36c0-0.4-0.2-0.96-0.5-1.25 0 0-12.2-12.84-18.8-12.84zm0 0" stroke-linecap="round" stroke-width="1.01" fill="#fff"/>
<path stroke-width=".72" d="m186.3 93.64v55.36h-106.1l0.01-61.97h95.69" fill="#6AC139"/>
<path stroke-width="1.01" d="m172.6 81.23s4.6 2.35 2.9 12.65c0 0 2.6-3.25 16.5 0.72" fill="#fff"/>
<g stroke-width=".72">
<g fill="#F380B0">
<ellipse rx="4.26" ry="11.24" cy="103" cx="108.9"/>
<ellipse rx="4.26" ry="11.24" cy="131.1" cx="108.9"/>
<ellipse rx="11.48" ry="4.17" cy="117.1" cx="95.32"/>
<ellipse rx="11.48" ry="4.17" cy="117.1" cx="123.5"/>
<path d="m95.82 124.2c4.48-4.4 9.48-6.7 11.18-5 1.6 1.6-0.7 6.5-5.2 10.9-4.44 4.3-9.42 6.6-11.09 5-1.66-1.7 0.63-6.5 5.11-10.9z"/>
<path d="m116.4 103.3c4.4-4.41 9.4-6.65 11.1-5.02 1.7 1.62-0.6 6.52-5.1 10.92s-9.5 6.6-11.2 5c-1.6-1.6 0.7-6.5 5.2-10.9z"/>
<path d="m115.9 130.1c-4.5-4.4-6.8-9.3-5.1-10.9 1.6-1.7 6.6 0.6 11.1 5s6.8 9.2 5.1 10.9c-1.6 1.6-6.6-0.7-11.1-5z"/>
<path d="m95.82 109.2c-4.48-4.4-6.77-9.3-5.11-10.92 1.67-1.63 6.65 0.61 11.09 5.02 4.5 4.4 6.8 9.3 5.2 10.9-1.7 1.6-6.7-0.6-11.18-5z"/>
</g>
<ellipse rx="5.9" ry="5.67" cy="117.1" cx="108.9" fill="#FFF200"/>
</g>
<g stroke-width=".72">
<g fill="#B59AC9">
<ellipse rx="2.22" ry="6.25" cy="124.1" cx="139.8"/>
<ellipse rx="2.22" ry="6.25" cy="139.7" cx="139.8"/>
<ellipse rx="5.99" ry="2.32" cy="131.9" cx="132.8"/>
<ellipse rx="5.99" ry="2.32" cy="131.9" cx="147.5"/>
<path d="m133 135.8c2.4-2.4 5-3.6 5.8-2.8 0.9 1-0.3 3.7-2.6 6.1-2.4 2.5-5 3.7-5.8 2.8-0.9-0.9 0.3-3.6 2.6-6.1z"/>
<path d="m143.7 124.2c2.4-2.4 5-3.7 5.9-2.8 0.8 1-0.4 3.7-2.7 6.1-2.4 2.4-5 3.7-5.8 2.8-0.9-0.9 0.3-3.6 2.6-6.1z"/>
<path d="m143.5 139.1c-2.3-2.4-3.5-5.1-2.7-6.1 0.9-0.8 3.5 0.4 5.8 2.8 2.4 2.5 3.6 5.2 2.7 6.1s-3.5-0.3-5.8-2.8z"/>
<path d="m133 127.5c-2.3-2.4-3.5-5.1-2.6-6.1 0.8-0.9 3.4 0.4 5.8 2.8 2.3 2.5 3.5 5.2 2.6 6.1-0.8 0.9-3.4-0.4-5.8-2.8z"/>
</g>
<ellipse rx="3.08" ry="3.15" cy="131.9" cx="139.8" fill="#FFF200"/>
</g>
<g stroke-width=".72">
<g fill="#87CEEB">
<ellipse rx="3.49" ry="9.16" cy="99.03" cx="162.8"/>
<ellipse rx="3.49" ry="9.16" cy="121.9" cx="162.8"/>
<ellipse rx="9.41" ry="3.4" cy="110.5" cx="151.7"/>
<ellipse rx="9.41" ry="3.4" cy="110.5" cx="174.8"/>
<path d="m152.1 116.3c3.7-3.6 7.7-5.4 9.1-4.1s-0.5 5.3-4.2 8.9-7.8 5.4-9.1 4.1c-1.4-1.4 0.5-5.4 4.2-8.9z"/>
<path d="m168.9 99.25c3.7-3.58 7.8-5.41 9.1-4.08 1.4 1.32-0.5 5.33-4.2 8.83-3.6 3.6-7.7 5.4-9.1 4.1-1.3-1.3 0.5-5.3 4.2-8.85z"/>
<path d="m168.5 121.1c-3.7-3.6-5.5-7.6-4.2-8.9 1.4-1.3 5.5 0.5 9.1 4.1 3.7 3.5 5.6 7.5 4.2 8.9-1.3 1.3-5.4-0.5-9.1-4.1z"/>
<path d="m152.1 104c-3.7-3.5-5.6-7.51-4.2-8.83 1.3-1.33 5.4 0.5 9.1 4.08 3.7 3.55 5.6 7.55 4.2 8.85s-5.4-0.5-9.1-4.1z"/>
</g>
<ellipse rx="4.83" ry="4.62" cy="110.5" cx="162.8" fill="#FFF200"/>
</g>
</g>
<path stroke="#000" stroke-width="1.01" d="m163.9 118.8c0 0.4-0.4 0.7-0.8 0.6l-115.1-11.3c-0.37-0.1-0.66-0.4-0.62-0.8l7.03-71.41c0.04-0.39 0.39-0.69 0.79-0.65l115.1 11.34c0.4 0.04 0.7 0.39 0.6 0.79l-7 71.43z" fill="#fff"/>
<path stroke="#000" stroke-width=".72" d="m59.46 40.75l105.5 10.39-6.2 62.76-105.5-10.4z" fill="#27AAE1"/>
<path stroke="#F7941E" stroke-width=".72" d="m152.4 55.04c3.9 2.33 5.2 7.43 2.9 11.38s-7.5 5.26-11.4 2.92-5.3-7.43-2.9-11.39c2.3-3.95 7.4-5.25 11.4-2.91" fill="#FFDE17"/>
<g stroke="#000" stroke-width=".72">
<path d="m120 77.03l2-20.32 13.9 18.8-14.5 1.66" fill="#fff"/>
<path d="m126 81.98s2.1 0.93 5.5-3.82l-20.1-1.98s0.4 4.4 0.8 4.44"/>
<path d="m161.6 85.49l-105.5-10.4-2.82 28.41 105.5 10.4z" fill="#2C4DA3"/>
<path d="m54.67 89.48l-1.4 14.22 105.5 10.4 1.7-17.1s-14.3-3.77-24.4 0.51c-10 4.29-15.3 4.69-24.7 0.28-9.6-4.39-23.12-7.53-32.05-5.88-8.93 1.66-24.34-2.4-24.42-3.31" fill="#F6B324"/>
</g>
</svg>
