<svg xmlns="http://www.w3.org/2000/svg" version="1.1" x="0" y="0" width="200" height="200">
<path stroke-linejoin="round" d="m130.9 58.15c-0.9-2.01-5-3.98-10.8-5.21l19.7-19.68c0.3 0.09 0.6 0.14 0.9 0.14 1.5 0 2.8-1.27 2.8-2.83 0-1.57-1.3-2.84-2.8-2.84-1.6 0-2.9 1.27-2.9 2.84 0 0.52 0.2 1.01 0.4 1.43l-20.4 20.49c-1.5-0.25-3.1-0.45-4.7-0.59-2.8-0.24-5.4-0.29-7.8-0.16l-6.36-17.84c0.68-0.52 0.88-1.59 0.88-2.51 0-1.57-1.27-2.84-2.84-2.84s-2.84 1.27-2.84 2.84c0 1.49 1.16 2.72 2.64 2.82l6.42 17.68c-5.22 0.53-8.8 1.94-9.04 3.89l-45.09-2.65-27.49 8.33v19.2l-6.56 1.81v31.63l6.56 5.5v26.2l28.11 25.7 131.4-18-0.5-92.13-49.7-3.22zm0 0" stroke="#808080" stroke-linecap="round" stroke-width="13.33" fill="none"/>
<g stroke="#000">
<g stroke-linejoin="round" stroke-linecap="round" stroke-width="1.01" fill="#595759">
<path d="m111.4 68.1c0.4 1.06 0.3 2.08-0.2 2.26-0.6 0.19-1.3-0.52-1.7-1.58l-12.76-35.1c-0.38-1.06-0.28-2.07 0.24-2.26s1.25 0.52 1.63 1.58l12.79 35.1z"/>
<path d="m113.9 59.29c-0.8 0.8-1.7 1.13-2.1 0.74-0.4-0.38-0.1-1.35 0.7-2.15l26.4-26.41c0.8-0.8 1.8-1.13 2.2-0.74s0.1 1.35-0.7 2.15l-26.5 26.41z"/>
<ellipse rx="2.84" ry="2.84" cy="30.57" cx="140.8"/>
<ellipse rx="2.84" ry="2.84" cy="31.39" cx="97.14"/>
</g>
<g stroke-width="1.01">
<path d="m126.2 54.68c7 2.8 6.7 6.32-0.7 7.85-7.4 1.54-19.1 0.52-26.12-2.28s-6.72-6.32 0.72-7.86c7.4-1.54 19.1-0.51 26.1 2.29" fill="#5A585A"/>
<path d="m27.35 123.9l-10.62-8.1c-0.85-0.7-1.55-2.1-1.55-3.2v-28.18c0-1.07 0.85-2.18 1.88-2.47l10.29-2.84" fill="#57585A"/>
<path d="m48.48 170.4l-25.3-23.2c-0.79-0.8-1.44-2.2-1.44-3.3v-80.49c0-1.07 0.83-2.22 1.85-2.56l25.24-7.52" fill="#4B4B4D"/>
<path d="m179 61.25c1.1 0.07 2 1 2 2.07v88.48c0 1-0.9 2-1.9 2.2l-129.1 17.3c-1.03 0.1-1.9-0.6-1.9-1.7v-114.8c0-1.12 0.88-1.95 1.95-1.88l129 8.33z" fill="#666"/>
</g>
<ellipse rx="7.37" ry="9.57" cy="83.83" cx="170" stroke-width="1.56" fill="#D1D3D4"/>
<ellipse rx="4.83" ry="6.26" cy="83.83" cx="170" stroke-width="1.56" fill="#6D6E71"/>
<path stroke-width="3.12" d="m167.1 88.85l6.1-9.67" fill="#fff"/>
<path stroke-width="1.56" d="m164.3 101.5c-0.7 0-1.2 0.5-1.2 1.2v40.3c0 0.7 0.5 1.1 1.1 1l11.1-1.6c0.6-0.1 1.1-0.7 1.1-1.4v-38.3c0-0.7-0.5-1.2-1.1-1.2h-11z" fill="#D1D2D3"/>
<g stroke-width="1.56" fill="#58595B">
<rect height="2.9" width="6.11" y="104.9" x="166.9"/>
<rect height="2.9" width="6.11" y="111.1" x="166.9"/>
<path d="m166.9 117.2h6.1v2.9l-6.1 0.4z"/>
<path d="m166.7 123.5l6.1-0.3v3.2l-6.1 0.4z"/>
<path d="m166.7 130.1l6.1-0.4v3.3l-6.1 0.7z"/>
<path d="m166.7 136.8l6.1-0.8v3.3l-6.1 0.8z"/>
</g>
<path stroke-width="1.56" d="m149.6 70.32c4.3 0.3 7.8 4.05 7.8 8.34v61.54c0 4.3-3.5 8.3-7.7 8.9l-83.12 10c-4.24 0.6-7.71-2.4-7.71-6.7v-79.35c0-4.29 3.5-7.56 7.78-7.26l82.95 4.53zm0 1.25" fill="#F6C727"/>
</g>
</svg>
